<svg xmlns="http://www.w3.org/2000/svg" xmlns:xlink="http://www.w3.org/1999/xlink" width="523" zoomAndPan="magnify" viewBox="0 0 392.25 72" height="96" preserveAspectRatio="xMidYMid meet" version="1.0"><defs><g/><clipPath id="id1"><path d="M 96 62.347656 L 290 62.347656 L 290 66.839844 L 96 66.839844 Z M 96 62.347656 " clip-rule="nonzero"/></clipPath><clipPath id="id2"><path d="M 99 8.003906 L 293 8.003906 L 293 12.496094 L 99 12.496094 Z M 99 8.003906 " clip-rule="nonzero"/></clipPath></defs><g clip-path="url(#id1)"><path fill="#e13a0d" d="M 96.320312 64.699219 C 96.90625 64.148438 97.507812 64.171875 98.082031 64.140625 C 111.367188 63.457031 124.660156 63.003906 137.964844 62.882812 C 148.9375 62.785156 159.910156 62.546875 170.886719 62.457031 C 184.859375 62.339844 198.832031 62.394531 212.804688 62.601562 C 222.035156 62.738281 231.269531 62.777344 240.503906 62.859375 C 249.984375 62.945312 259.46875 63.074219 268.945312 63.441406 C 274.347656 63.648438 279.757812 63.679688 285.140625 64.214844 C 286.210938 64.324219 287.277344 64.523438 288.34375 64.683594 C 288.929688 64.773438 289.640625 64.917969 289.664062 65.53125 C 289.695312 66.371094 288.800781 66.328125 288.191406 66.476562 C 286.820312 66.816406 285.515625 66.382812 284.167969 66.230469 C 281.785156 65.96875 279.355469 66.03125 276.941406 65.992188 C 271.453125 65.90625 265.96875 65.832031 260.480469 65.777344 C 250.664062 65.675781 240.851562 65.597656 231.039062 65.5 C 224.804688 65.433594 218.5625 65.347656 212.328125 65.273438 C 199.605469 65.125 186.882812 64.929688 174.160156 64.847656 C 161.441406 64.769531 148.71875 64.738281 136.003906 64.8125 C 124.195312 64.878906 112.394531 65.113281 100.589844 65.28125 C 99.839844 65.292969 99.097656 65.382812 98.347656 65.410156 C 97.609375 65.4375 96.835938 65.527344 96.320312 64.699219 " fill-opacity="1" fill-rule="nonzero"/></g><g fill="#e13a0d" fill-opacity="1"><g transform="translate(91.945286, 61.828218)"><g><path d="M 3.8125 0 C 2.976562 0 2.5625 -0.414062 2.5625 -1.25 L 2.5625 -44.75 C 2.5625 -45.582031 2.976562 -46 3.8125 -46 L 13.671875 -46 C 14.503906 -46 14.921875 -45.582031 14.921875 -44.75 L 14.921875 -1.25 C 14.921875 -0.414062 14.503906 0 13.671875 0 Z M 3.8125 0 "/></g></g></g><g fill="#e13a0d" fill-opacity="1"><g transform="translate(109.421126, 61.828218)"><g><path d="M 22.671875 -34.6875 C 24.859375 -34.6875 26.828125 -34.203125 28.578125 -33.234375 C 30.328125 -32.273438 31.71875 -30.863281 32.75 -29 C 33.78125 -27.144531 34.296875 -24.945312 34.296875 -22.40625 L 34.296875 -1.25 C 34.296875 -0.414062 33.878906 0 33.046875 0 L 23.1875 0 C 22.351562 0 21.9375 -0.414062 21.9375 -1.25 L 21.9375 -19.71875 C 21.9375 -21.03125 21.597656 -22.085938 20.921875 -22.890625 C 20.242188 -23.703125 19.359375 -24.109375 18.265625 -24.109375 C 17.128906 -24.109375 16.21875 -23.703125 15.53125 -22.890625 C 14.851562 -22.085938 14.515625 -21.03125 14.515625 -19.71875 L 14.515625 -1.25 C 14.515625 -0.414062 14.097656 0 13.265625 0 L 3.421875 0 C 2.585938 0 2.171875 -0.414062 2.171875 -1.25 L 2.171875 -32.921875 C 2.171875 -33.753906 2.585938 -34.171875 3.421875 -34.171875 L 13.265625 -34.171875 C 14.097656 -34.171875 14.515625 -33.753906 14.515625 -32.921875 L 14.515625 -31.203125 C 14.515625 -30.984375 14.566406 -30.84375 14.671875 -30.78125 C 14.785156 -30.71875 14.910156 -30.773438 15.046875 -30.953125 C 16.710938 -33.441406 19.253906 -34.6875 22.671875 -34.6875 Z M 22.671875 -34.6875 "/></g></g></g><g fill="#e13a0d" fill-opacity="1"><g transform="translate(145.686786, 61.828218)"><g><path d="M 20.171875 -9.921875 C 21.484375 -9.921875 22.707031 -10.082031 23.84375 -10.40625 C 24.988281 -10.738281 25.929688 -11.191406 26.671875 -11.765625 C 27.023438 -12.023438 27.3125 -12.15625 27.53125 -12.15625 C 27.832031 -12.15625 28.117188 -11.976562 28.390625 -11.625 L 32.859375 -5.453125 C 33.078125 -5.097656 33.1875 -4.835938 33.1875 -4.671875 C 33.1875 -4.359375 33.03125 -4.050781 32.71875 -3.75 C 31.144531 -2.300781 29.226562 -1.222656 26.96875 -0.515625 C 24.71875 0.179688 22.300781 0.53125 19.71875 0.53125 C 16.425781 0.53125 13.519531 -0.046875 11 -1.203125 C 8.488281 -2.367188 6.441406 -4.023438 4.859375 -6.171875 C 2.671875 -9.242188 1.578125 -12.96875 1.578125 -17.34375 C 1.578125 -19.226562 1.816406 -21.066406 2.296875 -22.859375 C 3.304688 -26.410156 5.289062 -29.269531 8.25 -31.4375 C 11.207031 -33.601562 14.632812 -34.6875 18.53125 -34.6875 C 23.039062 -34.6875 26.695312 -33.226562 29.5 -30.3125 C 32.300781 -27.40625 34.140625 -23.429688 35.015625 -18.390625 C 35.234375 -17.335938 35.363281 -16.289062 35.40625 -15.25 C 35.40625 -14.414062 34.992188 -14 34.171875 -14 L 14.65625 -14 C 14.300781 -14 14.144531 -13.800781 14.1875 -13.40625 L 14.515625 -12.546875 C 15.347656 -10.796875 17.234375 -9.921875 20.171875 -9.921875 Z M 18.265625 -24.109375 C 16.472656 -24.109375 15.222656 -23.234375 14.515625 -21.484375 L 14.328125 -20.953125 L 14.25 -20.765625 C 14.25 -20.503906 14.425781 -20.375 14.78125 -20.375 L 21.875 -20.375 C 22.226562 -20.375 22.40625 -20.503906 22.40625 -20.765625 C 22.40625 -20.890625 22.367188 -21.019531 22.296875 -21.15625 C 22.234375 -21.289062 22.179688 -21.398438 22.140625 -21.484375 C 21.398438 -23.234375 20.109375 -24.109375 18.265625 -24.109375 Z M 14.28125 -38.515625 C 13.925781 -38.515625 13.648438 -38.585938 13.453125 -38.734375 C 13.265625 -38.890625 13.171875 -39.082031 13.171875 -39.3125 C 13.171875 -39.53125 13.234375 -39.769531 13.359375 -40.03125 L 16.3125 -45.546875 C 16.625 -46.160156 17.109375 -46.46875 17.765625 -46.46875 L 27.09375 -46.46875 C 27.789062 -46.46875 28.140625 -46.203125 28.140625 -45.671875 C 28.140625 -45.410156 28.054688 -45.171875 27.890625 -44.953125 L 23.609375 -39.3125 C 23.210938 -38.78125 22.707031 -38.515625 22.09375 -38.515625 Z M 14.28125 -38.515625 "/></g></g></g><g fill="#e13a0d" fill-opacity="1"><g transform="translate(182.215237, 61.828218)"><g><path d="M 22.53125 -44.75 C 22.53125 -45.582031 22.945312 -46 23.78125 -46 L 33.640625 -46 C 34.472656 -46 34.890625 -45.582031 34.890625 -44.75 L 34.890625 -1.25 C 34.890625 -0.414062 34.472656 0 33.640625 0 L 23.78125 0 C 22.945312 0 22.53125 -0.414062 22.53125 -1.25 L 22.53125 -2.625 C 22.53125 -2.84375 22.460938 -2.972656 22.328125 -3.015625 C 22.203125 -3.066406 22.070312 -2.984375 21.9375 -2.765625 C 20.226562 -0.566406 17.753906 0.53125 14.515625 0.53125 C 11.585938 0.53125 8.953125 -0.398438 6.609375 -2.265625 C 4.265625 -4.128906 2.609375 -6.660156 1.640625 -9.859375 C 0.984375 -12.046875 0.65625 -14.5 0.65625 -17.21875 C 0.65625 -20.363281 1.140625 -23.164062 2.109375 -25.625 C 3.148438 -28.289062 4.785156 -30.46875 7.015625 -32.15625 C 9.253906 -33.84375 11.929688 -34.6875 15.046875 -34.6875 C 18.160156 -34.6875 20.457031 -33.769531 21.9375 -31.9375 C 22.113281 -31.757812 22.253906 -31.703125 22.359375 -31.765625 C 22.472656 -31.828125 22.53125 -31.96875 22.53125 -32.1875 Z M 21.546875 -12.28125 C 22.203125 -13.550781 22.53125 -15.128906 22.53125 -17.015625 C 22.53125 -19.117188 22.179688 -20.804688 21.484375 -22.078125 C 20.691406 -23.429688 19.550781 -24.109375 18.0625 -24.109375 C 16.488281 -24.109375 15.332031 -23.382812 14.59375 -21.9375 C 13.925781 -20.71875 13.59375 -19.078125 13.59375 -17.015625 C 13.59375 -15.085938 13.925781 -13.488281 14.59375 -12.21875 C 15.375 -10.769531 16.53125 -10.046875 18.0625 -10.046875 C 19.601562 -10.046875 20.765625 -10.789062 21.546875 -12.28125 Z M 21.546875 -12.28125 "/></g></g></g><g fill="#e13a0d" fill-opacity="1"><g transform="translate(219.466374, 61.828218)"><g><path d="M 8.875 -35.546875 C 6.769531 -35.546875 5.0625 -36.179688 3.75 -37.453125 C 2.4375 -38.722656 1.78125 -40.382812 1.78125 -42.4375 C 1.78125 -44.5 2.4375 -46.164062 3.75 -47.4375 C 5.0625 -48.707031 6.769531 -49.34375 8.875 -49.34375 C 11.019531 -49.34375 12.738281 -48.707031 14.03125 -47.4375 C 15.320312 -46.164062 15.96875 -44.5 15.96875 -42.4375 C 15.96875 -40.382812 15.320312 -38.722656 14.03125 -37.453125 C 12.738281 -36.179688 11.019531 -35.546875 8.875 -35.546875 Z M 3.9375 0 C 3.101562 0 2.6875 -0.414062 2.6875 -1.25 L 2.6875 -32.921875 C 2.6875 -33.753906 3.101562 -34.171875 3.9375 -34.171875 L 13.796875 -34.171875 C 14.628906 -34.171875 15.046875 -33.753906 15.046875 -32.921875 L 15.046875 -1.25 C 15.046875 -0.414062 14.628906 0 13.796875 0 Z M 3.9375 0 "/></g></g></g><g fill="#e13a0d" fill-opacity="1"><g transform="translate(237.205005, 61.828218)"><g><path d="M 24.5 -25.5625 C 24.5 -24.726562 24.085938 -24.3125 23.265625 -24.3125 L 18.265625 -24.3125 C 17.910156 -24.3125 17.734375 -24.132812 17.734375 -23.78125 L 17.734375 -14.0625 C 17.734375 -11.875 18.523438 -10.78125 20.109375 -10.78125 L 22.265625 -10.78125 C 23.097656 -10.78125 23.515625 -10.363281 23.515625 -9.53125 L 23.515625 -1.578125 C 23.515625 -0.828125 23.125 -0.410156 22.34375 -0.328125 C 20.632812 -0.191406 19.054688 -0.125 17.609375 -0.125 C 13.617188 -0.125 10.679688 -0.738281 8.796875 -1.96875 C 6.921875 -3.195312 5.957031 -5.519531 5.90625 -8.9375 L 5.90625 -23.78125 C 5.90625 -24.132812 5.734375 -24.3125 5.390625 -24.3125 L 2.296875 -24.3125 C 1.460938 -24.3125 1.046875 -24.726562 1.046875 -25.5625 L 1.046875 -32.921875 C 1.046875 -33.753906 1.460938 -34.171875 2.296875 -34.171875 L 5.390625 -34.171875 C 5.734375 -34.171875 5.90625 -34.34375 5.90625 -34.6875 L 5.90625 -42.109375 C 5.90625 -42.941406 6.320312 -43.359375 7.15625 -43.359375 L 16.484375 -43.359375 C 17.316406 -43.359375 17.734375 -42.941406 17.734375 -42.109375 L 17.734375 -34.6875 C 17.734375 -34.34375 17.910156 -34.171875 18.265625 -34.171875 L 23.265625 -34.171875 C 24.085938 -34.171875 24.5 -33.753906 24.5 -32.921875 Z M 24.5 -25.5625 "/></g></g></g><g fill="#e13a0d" fill-opacity="1"><g transform="translate(262.893181, 61.828218)"><g><path d="M 18.328125 0.53125 C 14.171875 0.53125 10.65625 -0.582031 7.78125 -2.8125 C 4.914062 -5.050781 3.023438 -8.078125 2.109375 -11.890625 C 1.671875 -13.460938 1.453125 -15.21875 1.453125 -17.15625 C 1.453125 -19.300781 1.710938 -21.25 2.234375 -23 C 3.285156 -26.632812 5.222656 -29.488281 8.046875 -31.5625 C 10.867188 -33.644531 14.316406 -34.6875 18.390625 -34.6875 C 22.460938 -34.6875 25.890625 -33.644531 28.671875 -31.5625 C 31.460938 -29.488281 33.378906 -26.675781 34.421875 -23.125 C 34.953125 -21.289062 35.21875 -19.34375 35.21875 -17.28125 C 35.21875 -15.613281 35.039062 -13.945312 34.6875 -12.28125 C 33.769531 -8.34375 31.875 -5.222656 29 -2.921875 C 26.132812 -0.617188 22.578125 0.53125 18.328125 0.53125 Z M 18.328125 -10.046875 C 19.472656 -10.046875 20.394531 -10.429688 21.09375 -11.203125 C 21.789062 -11.972656 22.269531 -12.988281 22.53125 -14.25 C 22.707031 -15.082031 22.796875 -16.070312 22.796875 -17.21875 C 22.796875 -18.21875 22.6875 -19.222656 22.46875 -20.234375 C 21.8125 -22.816406 20.429688 -24.109375 18.328125 -24.109375 C 16.140625 -24.109375 14.757812 -22.816406 14.1875 -20.234375 C 13.96875 -19.492188 13.859375 -18.488281 13.859375 -17.21875 C 13.859375 -16.070312 13.945312 -15.082031 14.125 -14.25 C 14.78125 -11.445312 16.179688 -10.046875 18.328125 -10.046875 Z M 18.328125 -10.046875 "/></g></g></g><g clip-path="url(#id2)"><path fill="#e13a0d" d="M 99.136719 10.359375 C 99.722656 9.804688 100.324219 9.828125 100.898438 9.796875 C 114.183594 9.113281 127.476562 8.660156 140.78125 8.539062 C 151.753906 8.441406 162.726562 8.203125 173.703125 8.113281 C 187.675781 7.996094 201.648438 8.050781 215.621094 8.257812 C 224.851562 8.394531 234.085938 8.433594 243.320312 8.519531 C 252.800781 8.601562 262.285156 8.730469 271.761719 9.097656 C 277.164062 9.308594 282.574219 9.335938 287.957031 9.875 C 289.03125 9.980469 290.09375 10.179688 291.160156 10.339844 C 291.746094 10.429688 292.457031 10.574219 292.480469 11.1875 C 292.511719 12.027344 291.617188 11.984375 291.007812 12.136719 C 289.636719 12.472656 288.332031 12.039062 286.984375 11.890625 C 284.601562 11.625 282.171875 11.6875 279.757812 11.652344 C 274.273438 11.566406 268.785156 11.488281 263.296875 11.433594 C 253.480469 11.332031 243.667969 11.253906 233.855469 11.15625 C 227.621094 11.089844 221.378906 11.003906 215.144531 10.929688 C 202.421875 10.785156 189.699219 10.585938 176.976562 10.503906 C 164.257812 10.425781 151.539062 10.394531 138.820312 10.46875 C 127.011719 10.539062 115.210938 10.773438 103.40625 10.941406 C 102.660156 10.949219 101.914062 11.039062 101.164062 11.066406 C 100.425781 11.09375 99.652344 11.1875 99.136719 10.359375 " fill-opacity="1" fill-rule="nonzero"/></g></svg>